<svg xmlns="http://www.w3.org/2000/svg" width="1600" height="1000" viewBox="0 0 1600 1000">
<rect width="1600" height="1000" fill="#f7f8fa"/><rect width="1600" height="76" fill="#ffffff"/><text x="48" y="48" font-family="Arial" font-size="24" font-weight="700" fill="#17212b">DIGITAL LAB · MANAGEMENT SYSTEM</text><text x="1510" y="47" text-anchor="end" font-family="Arial" font-size="15" fill="#66717c">P&amp;L</text>
<rect x="0" y="76" width="210" height="924" fill="#111820"/><text x="32" y="132" font-family="Arial" font-size="13" font-weight="700" fill="#93a0aa">УПРАВЛЕНИЕ</text>
<g font-family="Arial" font-size="17" fill="#dbe1e6"><text x="32" y="185">Обзор</text><text x="32" y="235">ДДС</text><text x="32" y="285">P&amp;L</text><text x="32" y="335">План / факт</text><text x="32" y="385">Кошельки</text><text x="32" y="435">Справочники</text></g>
<text x="260" y="145" font-family="Arial" font-size="34" font-weight="700" fill="#17212b">P&amp;L · план / факт</text><text x="260" y="180" font-family="Arial" font-size="16" fill="#77818a">Управленческий отчёт о доходах, расходах и финансовом результате</text><rect x="260" y="225" width="1275" height="680" rx="18" fill="#fff" stroke="#dde2e7"/><g font-family="Arial"><rect x="260" y="225" width="1275" height="58" rx="18" fill="#eef1f4"/><text x="300" y="261" font-size="13" font-weight="700" fill="#4c5862">ПОКАЗАТЕЛЬ</text><text x="820" y="261" font-size="13" font-weight="700" fill="#4c5862">ПЛАН</text><text x="1030" y="261" font-size="13" font-weight="700" fill="#4c5862">ФАКТ</text><text x="1240" y="261" font-size="13" font-weight="700" fill="#4c5862">ОТКЛОНЕНИЕ</text><rect x="280" y="300" width="1235" height="70" rx="8" fill="#fff"/><text x="300" y="340" font-size="16" font-weight="400" fill="#27323b">Выручка</text><text x="820" y="340" font-size="16" fill="#46515b">₽ 3 200 000</text><text x="1030" y="340" font-size="16" font-weight="700" fill="#17212b">₽ 3 480 000</text><text x="1240" y="340" font-size="16" fill="#2b7a55">+8.8%</text><rect x="280" y="388" width="1235" height="70" rx="8" fill="#fff"/><text x="300" y="428" font-size="16" font-weight="400" fill="#27323b">Себестоимость</text><text x="820" y="428" font-size="16" fill="#46515b">₽ 1 020 000</text><text x="1030" y="428" font-size="16" font-weight="700" fill="#17212b">₽ 1 090 000</text><text x="1240" y="428" font-size="16" fill="#2b7a55">−6.9%</text><rect x="280" y="476" width="1235" height="70" rx="8" fill="#f7f8fa"/><text x="300" y="516" font-size="16" font-weight="700" fill="#27323b">Валовая прибыль</text><text x="820" y="516" font-size="16" fill="#46515b">₽ 2 180 000</text><text x="1030" y="516" font-size="16" font-weight="700" fill="#17212b">₽ 2 390 000</text><text x="1240" y="516" font-size="16" fill="#2b7a55">+9.6%</text><rect x="280" y="564" width="1235" height="70" rx="8" fill="#fff"/><text x="300" y="604" font-size="16" font-weight="400" fill="#27323b">Операционные расходы</text><text x="820" y="604" font-size="16" fill="#46515b">₽ 980 000</text><text x="1030" y="604" font-size="16" font-weight="700" fill="#17212b">₽ 1 010 000</text><text x="1240" y="604" font-size="16" fill="#2b7a55">−3.1%</text><rect x="280" y="652" width="1235" height="70" rx="8" fill="#f7f8fa"/><text x="300" y="692" font-size="16" font-weight="700" fill="#27323b">EBITDA</text><text x="820" y="692" font-size="16" fill="#46515b">₽ 1 200 000</text><text x="1030" y="692" font-size="16" font-weight="700" fill="#17212b">₽ 1 380 000</text><text x="1240" y="692" font-size="16" fill="#2b7a55">+15.0%</text><rect x="280" y="740" width="1235" height="70" rx="8" fill="#f7f8fa"/><text x="300" y="780" font-size="16" font-weight="700" fill="#27323b">Чистая прибыль</text><text x="820" y="780" font-size="16" fill="#46515b">₽ 1 040 000</text><text x="1030" y="780" font-size="16" font-weight="700" fill="#17212b">₽ 1 120 000</text><text x="1240" y="780" font-size="16" fill="#2b7a55">+7.7%</text></g></svg>